<svg xmlns="http://www.w3.org/2000/svg" width="700" height="160">
<rect width="700" height="160" fill="#131722" rx="4"/>
<polyline points="20.0,120.7 27.4,120.7 34.8,120.7 42.2,120.7 49.7,120.7 57.1,120.7 64.5,120.7 71.9,120.7 79.3,120.7 86.7,120.7 94.2,120.7 101.6,120.7 109.0,120.7 116.4,120.7 123.8,120.7 131.2,120.7 138.7,120.7 146.1,120.7 153.5,120.7 160.9,120.7 168.3,120.7 175.7,120.7 183.1,120.7 190.6,120.7 198.0,120.7 205.4,120.7 212.8,120.7 220.2,120.7 227.6,120.7 235.1,120.7 242.5,120.7 249.9,120.7 257.3,120.7 264.7,120.7 272.1,120.7 279.6,120.7 287.0,116.2 294.4,120.7 301.8,120.7 309.2,120.7 316.6,120.7 324.0,120.7 331.5,120.7 338.9,120.7 346.3,111.6 353.7,120.7 361.1,120.7 368.5,120.7 376.0,116.2 383.4,93.4 390.8,120.7 398.2,93.4 405.6,116.2 413.0,120.7 420.4,120.7 427.9,102.5 435.3,120.7 442.7,120.7 450.1,120.7 457.5,120.7 464.9,116.2 472.4,120.7 479.8,120.7 487.2,111.6 494.6,107.1 502.0,107.1 509.4,120.7 516.9,111.6 524.3,66.2 531.7,25.3 539.1,111.6 546.5,107.1 553.9,48.0 561.3,70.7 568.8,38.9 576.2,120.7 583.6,88.9 591.0,120.7 598.4,116.2 605.8,116.2 613.3,93.4 620.7,25.3 628.1,120.7 635.5,120.7 642.9,120.7 650.3,120.7 657.8,120.7 665.2,102.5 672.6,84.4 680.0,70.7" fill="none" stroke="#26a69a" stroke-width="1.5" stroke-linejoin="round" stroke-linecap="round"/>
<circle cx="680.0" cy="70.7" r="3" fill="#26a69a"/>
<text x="20" y="157" font-family="monospace" font-size="9" fill="#787b86">contributions — last 90 days</text>
</svg>