<svg xmlns="http://www.w3.org/2000/svg" width="700" height="160">
<rect width="700" height="160" fill="#131722" rx="4"/>
<line x1="28" y1="48.0" x2="672" y2="48.0" stroke="#2a2e39" stroke-width="1"/>
<line x1="28" y1="80.0" x2="672" y2="80.0" stroke="#2a2e39" stroke-width="1"/>
<line x1="28" y1="112.0" x2="672" y2="112.0" stroke="#2a2e39" stroke-width="1"/>
<text x="28" y="156" font-family="monospace" font-size="9" fill="#787b86">github contributions — last 26 weeks</text>
<line x1="40.4" y1="137.6" x2="40.4" y2="137.6" stroke="#26a69a" stroke-width="1"/>
<rect x="34.2" y="137.6" width="12.4" height="1.5" fill="#26a69a"/>
<line x1="65.2" y1="137.6" x2="65.2" y2="137.6" stroke="#26a69a" stroke-width="1"/>
<rect x="59.0" y="137.6" width="12.4" height="1.5" fill="#26a69a"/>
<line x1="89.9" y1="137.6" x2="89.9" y2="137.6" stroke="#26a69a" stroke-width="1"/>
<rect x="83.7" y="137.6" width="12.4" height="1.5" fill="#26a69a"/>
<line x1="114.7" y1="137.6" x2="114.7" y2="137.6" stroke="#26a69a" stroke-width="1"/>
<rect x="108.5" y="137.6" width="12.4" height="1.5" fill="#26a69a"/>
<line x1="139.5" y1="137.6" x2="139.5" y2="137.6" stroke="#26a69a" stroke-width="1"/>
<rect x="133.3" y="137.6" width="12.4" height="1.5" fill="#26a69a"/>
<line x1="164.2" y1="137.6" x2="164.2" y2="137.6" stroke="#26a69a" stroke-width="1"/>
<rect x="158.0" y="137.6" width="12.4" height="1.5" fill="#26a69a"/>
<line x1="189.0" y1="137.6" x2="189.0" y2="137.6" stroke="#26a69a" stroke-width="1"/>
<rect x="182.8" y="137.6" width="12.4" height="1.5" fill="#26a69a"/>
<line x1="213.8" y1="137.6" x2="213.8" y2="137.6" stroke="#26a69a" stroke-width="1"/>
<rect x="207.6" y="137.6" width="12.4" height="1.5" fill="#26a69a"/>
<line x1="238.5" y1="137.6" x2="238.5" y2="137.6" stroke="#26a69a" stroke-width="1"/>
<rect x="232.3" y="137.6" width="12.4" height="1.5" fill="#26a69a"/>
<line x1="263.3" y1="137.6" x2="263.3" y2="137.6" stroke="#26a69a" stroke-width="1"/>
<rect x="257.1" y="137.6" width="12.4" height="1.5" fill="#26a69a"/>
<line x1="288.1" y1="137.6" x2="288.1" y2="137.6" stroke="#26a69a" stroke-width="1"/>
<rect x="281.9" y="137.6" width="12.4" height="1.5" fill="#26a69a"/>
<line x1="312.8" y1="137.6" x2="312.8" y2="137.6" stroke="#26a69a" stroke-width="1"/>
<rect x="306.7" y="137.6" width="12.4" height="1.5" fill="#26a69a"/>
<line x1="337.6" y1="137.6" x2="337.6" y2="137.6" stroke="#26a69a" stroke-width="1"/>
<rect x="331.4" y="137.6" width="12.4" height="1.5" fill="#26a69a"/>
<line x1="362.4" y1="137.6" x2="362.4" y2="137.6" stroke="#26a69a" stroke-width="1"/>
<rect x="356.2" y="137.6" width="12.4" height="1.5" fill="#26a69a"/>
<line x1="387.2" y1="137.6" x2="387.2" y2="137.6" stroke="#26a69a" stroke-width="1"/>
<rect x="381.0" y="137.6" width="12.4" height="1.5" fill="#26a69a"/>
<line x1="411.9" y1="137.6" x2="411.9" y2="137.6" stroke="#26a69a" stroke-width="1"/>
<rect x="405.7" y="137.6" width="12.4" height="1.5" fill="#26a69a"/>
<line x1="436.7" y1="137.6" x2="436.7" y2="137.6" stroke="#26a69a" stroke-width="1"/>
<rect x="430.5" y="137.6" width="12.4" height="1.5" fill="#26a69a"/>
<line x1="461.5" y1="137.6" x2="461.5" y2="137.6" stroke="#26a69a" stroke-width="1"/>
<rect x="455.3" y="137.6" width="12.4" height="1.5" fill="#26a69a"/>
<line x1="486.2" y1="132.1" x2="486.2" y2="137.6" stroke="#26a69a" stroke-width="1"/>
<rect x="480.0" y="137.6" width="12.4" height="1.5" fill="#26a69a"/>
<line x1="511.0" y1="126.6" x2="511.0" y2="137.6" stroke="#26a69a" stroke-width="1"/>
<rect x="504.8" y="132.1" width="12.4" height="5.5" fill="#26a69a"/>
<line x1="535.8" y1="104.7" x2="535.8" y2="137.6" stroke="#ef5350" stroke-width="1"/>
<rect x="529.6" y="104.7" width="12.4" height="11.0" fill="#ef5350"/>
<line x1="560.5" y1="132.1" x2="560.5" y2="137.6" stroke="#26a69a" stroke-width="1"/>
<rect x="554.3" y="137.6" width="12.4" height="1.5" fill="#26a69a"/>
<line x1="585.3" y1="22.4" x2="585.3" y2="137.6" stroke="#26a69a" stroke-width="1"/>
<rect x="579.1" y="22.4" width="12.4" height="104.2" fill="#26a69a"/>
<line x1="610.1" y1="38.9" x2="610.1" y2="137.6" stroke="#26a69a" stroke-width="1"/>
<rect x="603.9" y="99.2" width="12.4" height="27.4" fill="#26a69a"/>
<line x1="634.8" y1="22.4" x2="634.8" y2="137.6" stroke="#26a69a" stroke-width="1"/>
<rect x="628.7" y="137.6" width="12.4" height="1.5" fill="#26a69a"/>
<line x1="659.6" y1="88.2" x2="659.6" y2="137.6" stroke="#26a69a" stroke-width="1"/>
<rect x="653.4" y="88.2" width="12.4" height="49.4" fill="#26a69a"/>
</svg>