<svg xmlns="http://www.w3.org/2000/svg" width="700" height="160">
<rect width="700" height="160" fill="#131722" rx="4"/>
<line x1="28" y1="100.0" x2="672" y2="100.0" stroke="#1e2130" stroke-width="1"/>
<line x1="28" y1="72.0" x2="672" y2="72.0" stroke="#1e2130" stroke-width="1"/>
<line x1="28" y1="44.0" x2="672" y2="44.0" stroke="#1e2130" stroke-width="1"/>
<text x="28" y="156" font-family="monospace" font-size="9" fill="#787b86">contributions — last 90 days</text>
<rect x="29.1" y="126.5" width="5.0" height="1.5" fill="#2a2e39" rx="1"/>
<rect x="36.2" y="126.5" width="5.0" height="1.5" fill="#2a2e39" rx="1"/>
<rect x="43.4" y="126.5" width="5.0" height="1.5" fill="#2a2e39" rx="1"/>
<rect x="50.5" y="126.5" width="5.0" height="1.5" fill="#2a2e39" rx="1"/>
<rect x="57.7" y="126.5" width="5.0" height="1.5" fill="#2a2e39" rx="1"/>
<rect x="64.9" y="126.5" width="5.0" height="1.5" fill="#2a2e39" rx="1"/>
<rect x="72.0" y="126.5" width="5.0" height="1.5" fill="#2a2e39" rx="1"/>
<rect x="79.2" y="126.5" width="5.0" height="1.5" fill="#2a2e39" rx="1"/>
<rect x="86.3" y="126.5" width="5.0" height="1.5" fill="#2a2e39" rx="1"/>
<rect x="93.5" y="126.5" width="5.0" height="1.5" fill="#2a2e39" rx="1"/>
<rect x="100.6" y="126.5" width="5.0" height="1.5" fill="#2a2e39" rx="1"/>
<rect x="107.8" y="126.5" width="5.0" height="1.5" fill="#2a2e39" rx="1"/>
<rect x="114.9" y="126.5" width="5.0" height="1.5" fill="#2a2e39" rx="1"/>
<rect x="122.1" y="126.5" width="5.0" height="1.5" fill="#2a2e39" rx="1"/>
<rect x="129.3" y="126.5" width="5.0" height="1.5" fill="#2a2e39" rx="1"/>
<rect x="136.4" y="126.5" width="5.0" height="1.5" fill="#2a2e39" rx="1"/>
<rect x="143.6" y="126.5" width="5.0" height="1.5" fill="#2a2e39" rx="1"/>
<rect x="150.7" y="126.5" width="5.0" height="1.5" fill="#2a2e39" rx="1"/>
<rect x="157.9" y="126.5" width="5.0" height="1.5" fill="#2a2e39" rx="1"/>
<rect x="165.0" y="126.5" width="5.0" height="1.5" fill="#2a2e39" rx="1"/>
<rect x="172.2" y="126.5" width="5.0" height="1.5" fill="#2a2e39" rx="1"/>
<rect x="179.3" y="126.5" width="5.0" height="1.5" fill="#2a2e39" rx="1"/>
<rect x="186.5" y="126.5" width="5.0" height="1.5" fill="#2a2e39" rx="1"/>
<rect x="193.7" y="126.5" width="5.0" height="1.5" fill="#2a2e39" rx="1"/>
<rect x="200.8" y="126.5" width="5.0" height="1.5" fill="#2a2e39" rx="1"/>
<rect x="208.0" y="126.5" width="5.0" height="1.5" fill="#2a2e39" rx="1"/>
<rect x="215.1" y="126.5" width="5.0" height="1.5" fill="#2a2e39" rx="1"/>
<rect x="222.3" y="126.5" width="5.0" height="1.5" fill="#2a2e39" rx="1"/>
<rect x="229.4" y="126.5" width="5.0" height="1.5" fill="#2a2e39" rx="1"/>
<rect x="236.6" y="126.5" width="5.0" height="1.5" fill="#2a2e39" rx="1"/>
<rect x="243.7" y="126.5" width="5.0" height="1.5" fill="#2a2e39" rx="1"/>
<rect x="250.9" y="126.5" width="5.0" height="1.5" fill="#2a2e39" rx="1"/>
<rect x="258.1" y="126.5" width="5.0" height="1.5" fill="#2a2e39" rx="1"/>
<rect x="265.2" y="126.5" width="5.0" height="1.5" fill="#2a2e39" rx="1"/>
<rect x="272.4" y="126.5" width="5.0" height="1.5" fill="#2a2e39" rx="1"/>
<rect x="279.5" y="126.5" width="5.0" height="1.5" fill="#2a2e39" rx="1"/>
<rect x="286.7" y="122.7" width="5.0" height="5.3" fill="#26a69a" rx="1"/>
<rect x="293.8" y="126.5" width="5.0" height="1.5" fill="#2a2e39" rx="1"/>
<rect x="301.0" y="126.5" width="5.0" height="1.5" fill="#2a2e39" rx="1"/>
<rect x="308.1" y="126.5" width="5.0" height="1.5" fill="#2a2e39" rx="1"/>
<rect x="315.3" y="126.5" width="5.0" height="1.5" fill="#2a2e39" rx="1"/>
<rect x="322.5" y="126.5" width="5.0" height="1.5" fill="#2a2e39" rx="1"/>
<rect x="329.6" y="126.5" width="5.0" height="1.5" fill="#2a2e39" rx="1"/>
<rect x="336.8" y="126.5" width="5.0" height="1.5" fill="#2a2e39" rx="1"/>
<rect x="343.9" y="117.3" width="5.0" height="10.7" fill="#26a69a" rx="1"/>
<rect x="351.1" y="126.5" width="5.0" height="1.5" fill="#2a2e39" rx="1"/>
<rect x="358.2" y="126.5" width="5.0" height="1.5" fill="#2a2e39" rx="1"/>
<rect x="365.4" y="126.5" width="5.0" height="1.5" fill="#2a2e39" rx="1"/>
<rect x="372.5" y="122.7" width="5.0" height="5.3" fill="#26a69a" rx="1"/>
<rect x="379.7" y="96.0" width="5.0" height="32.0" fill="#26a69a" rx="1"/>
<rect x="386.9" y="126.5" width="5.0" height="1.5" fill="#2a2e39" rx="1"/>
<rect x="394.0" y="96.0" width="5.0" height="32.0" fill="#26a69a" rx="1"/>
<rect x="401.2" y="122.7" width="5.0" height="5.3" fill="#26a69a" rx="1"/>
<rect x="408.3" y="126.5" width="5.0" height="1.5" fill="#2a2e39" rx="1"/>
<rect x="415.5" y="126.5" width="5.0" height="1.5" fill="#2a2e39" rx="1"/>
<rect x="422.6" y="106.7" width="5.0" height="21.3" fill="#26a69a" rx="1"/>
<rect x="429.8" y="126.5" width="5.0" height="1.5" fill="#2a2e39" rx="1"/>
<rect x="436.9" y="126.5" width="5.0" height="1.5" fill="#2a2e39" rx="1"/>
<rect x="444.1" y="126.5" width="5.0" height="1.5" fill="#2a2e39" rx="1"/>
<rect x="451.3" y="126.5" width="5.0" height="1.5" fill="#2a2e39" rx="1"/>
<rect x="458.4" y="122.7" width="5.0" height="5.3" fill="#26a69a" rx="1"/>
<rect x="465.6" y="126.5" width="5.0" height="1.5" fill="#2a2e39" rx="1"/>
<rect x="472.7" y="126.5" width="5.0" height="1.5" fill="#2a2e39" rx="1"/>
<rect x="479.9" y="117.3" width="5.0" height="10.7" fill="#26a69a" rx="1"/>
<rect x="487.0" y="112.0" width="5.0" height="16.0" fill="#26a69a" rx="1"/>
<rect x="494.2" y="112.0" width="5.0" height="16.0" fill="#26a69a" rx="1"/>
<rect x="501.3" y="126.5" width="5.0" height="1.5" fill="#2a2e39" rx="1"/>
<rect x="508.5" y="117.3" width="5.0" height="10.7" fill="#26a69a" rx="1"/>
<rect x="515.7" y="64.0" width="5.0" height="64.0" fill="#26a69a" rx="1"/>
<rect x="522.8" y="16.0" width="5.0" height="112.0" fill="#26a69a" rx="1"/>
<rect x="530.0" y="117.3" width="5.0" height="10.7" fill="#26a69a" rx="1"/>
<rect x="537.1" y="112.0" width="5.0" height="16.0" fill="#26a69a" rx="1"/>
<rect x="544.3" y="42.7" width="5.0" height="85.3" fill="#26a69a" rx="1"/>
<rect x="551.4" y="69.3" width="5.0" height="58.7" fill="#26a69a" rx="1"/>
<rect x="558.6" y="32.0" width="5.0" height="96.0" fill="#26a69a" rx="1"/>
<rect x="565.7" y="126.5" width="5.0" height="1.5" fill="#2a2e39" rx="1"/>
<rect x="572.9" y="90.7" width="5.0" height="37.3" fill="#26a69a" rx="1"/>
<rect x="580.1" y="126.5" width="5.0" height="1.5" fill="#2a2e39" rx="1"/>
<rect x="587.2" y="122.7" width="5.0" height="5.3" fill="#26a69a" rx="1"/>
<rect x="594.4" y="122.7" width="5.0" height="5.3" fill="#26a69a" rx="1"/>
<rect x="601.5" y="96.0" width="5.0" height="32.0" fill="#26a69a" rx="1"/>
<rect x="608.7" y="16.0" width="5.0" height="112.0" fill="#26a69a" rx="1"/>
<rect x="615.8" y="126.5" width="5.0" height="1.5" fill="#2a2e39" rx="1"/>
<rect x="623.0" y="126.5" width="5.0" height="1.5" fill="#2a2e39" rx="1"/>
<rect x="630.1" y="126.5" width="5.0" height="1.5" fill="#2a2e39" rx="1"/>
<rect x="637.3" y="126.5" width="5.0" height="1.5" fill="#2a2e39" rx="1"/>
<rect x="644.5" y="126.5" width="5.0" height="1.5" fill="#2a2e39" rx="1"/>
<rect x="651.6" y="106.7" width="5.0" height="21.3" fill="#26a69a" rx="1"/>
<rect x="658.8" y="85.3" width="5.0" height="42.7" fill="#26a69a" rx="1"/>
<rect x="665.9" y="74.7" width="5.0" height="53.3" fill="#26a69a" rx="1"/>
</svg>