<svg xmlns="http://www.w3.org/2000/svg" width="700" height="300" viewBox="0 0 700 300">
<rect width="700" height="300" fill="#131722" rx="8"/>
<text x="24" y="40" font-family="Arial,sans-serif" font-size="13" font-weight="bold" fill="#787b86">GIT</text>
<text x="24" y="102" font-family="Arial,sans-serif" font-size="54" font-weight="bold" fill="#d1d4dc">176</text>
<text x="24" y="132" font-family="Arial,sans-serif" font-size="15" fill="#26a69a">▲ +5 (62.5%)  Today</text>
<text x="24" y="158" font-family="Arial,sans-serif" font-size="15" fill="#26a69a">▲ 176  YTD</text>
<polyline points="24.0,271.5 31.3,271.5 38.7,271.5 46.0,271.5 53.3,271.5 60.6,271.5 68.0,271.5 75.3,271.5 82.6,271.5 89.9,271.5 97.3,271.5 104.6,271.5 111.9,271.5 119.2,271.5 126.6,271.5 133.9,271.5 141.2,271.5 148.5,271.5 155.9,271.5 163.2,271.5 170.5,271.5 177.8,271.5 185.2,271.5 192.5,271.5 199.8,271.5 207.1,271.5 214.5,271.5 221.8,271.5 229.1,271.5 236.4,271.5 243.8,271.5 251.1,271.5 258.4,271.5 265.8,271.5 273.1,271.5 280.4,271.5 287.7,267.6 295.1,271.5 302.4,271.5 309.7,271.5 317.0,271.5 324.4,271.5 331.7,271.5 339.0,271.5 346.3,263.7 353.7,271.5 361.0,271.5 368.3,271.5 375.6,267.6 383.0,248.1 390.3,271.5 397.6,248.1 404.9,267.6 412.3,271.5 419.6,271.5 426.9,255.9 434.2,271.5 441.6,271.5 448.9,271.5 456.2,271.5 463.6,267.6 470.9,271.5 478.2,271.5 485.5,263.7 492.9,259.8 500.2,259.8 507.5,271.5 514.8,263.7 522.2,224.7 529.5,189.6 536.8,263.7 544.1,259.8 551.5,209.1 558.8,228.6 566.1,201.3 573.4,271.5 580.8,244.2 588.1,271.5 595.4,267.6 602.7,267.6 610.1,248.1 617.4,189.6 624.7,271.5 632.0,271.5 639.4,271.5 646.7,271.5 654.0,271.5 661.3,255.9 668.7,240.2 676.0,220.8" fill="none" stroke="#26a69a" stroke-width="1.5" stroke-linejoin="round" stroke-linecap="round"/>
<circle cx="676.0" cy="220.8" r="3.5" fill="#26a69a"/>
<text x="24" y="294" font-family="Arial,sans-serif" font-size="9" fill="#787b86">last 90 days</text>
</svg>