<svg xmlns="http://www.w3.org/2000/svg" width="700" height="300">
<rect width="700" height="300" fill="#131722" rx="8"/>
<text x="24" y="40" font-family="'Helvetica Neue',Arial,sans-serif" font-size="13" font-weight="700" fill="#787b86">GIT</text>
<text x="24" y="100" font-family="'Helvetica Neue',Arial,sans-serif" font-size="54" font-weight="700" fill="#d1d4dc">175</text>
<text x="24" y="130" font-family="'Helvetica Neue',Arial,sans-serif" font-size="15" fill="#26a69a">
  <tspan> & #9650; </tspan>
  <tspan dx="4">+4 (50.0%)  Today</tspan>
</text>
<text x="24" y="156" font-family="'Helvetica Neue',Arial,sans-serif" font-size="15" fill="#26a69a">
  <tspan>&#9650;</tspan>
  <tspan dx="4">175  YTD</tspan>
</text>
<polyline points="24.0,271.1 31.3,271.1 38.7,271.1 46.0,271.1 53.3,271.1 60.6,271.1 68.0,271.1 75.3,271.1 82.6,271.1 89.9,271.1 97.3,271.1 104.6,271.1 111.9,271.1 119.2,271.1 126.6,271.1 133.9,271.1 141.2,271.1 148.5,271.1 155.9,271.1 163.2,271.1 170.5,271.1 177.8,271.1 185.2,271.1 192.5,271.1 199.8,271.1 207.1,271.1 214.5,271.1 221.8,271.1 229.1,271.1 236.4,271.1 243.8,271.1 251.1,271.1 258.4,271.1 265.8,271.1 273.1,271.1 280.4,271.1 287.7,266.9 295.1,271.1 302.4,271.1 309.7,271.1 317.0,271.1 324.4,271.1 331.7,271.1 339.0,271.1 346.3,262.7 353.7,271.1 361.0,271.1 368.3,271.1 375.6,266.9 383.0,245.9 390.3,271.1 397.6,245.9 404.9,266.9 412.3,271.1 419.6,271.1 426.9,254.3 434.2,271.1 441.6,271.1 448.9,271.1 456.2,271.1 463.6,266.9 470.9,271.1 478.2,271.1 485.5,262.7 492.9,258.5 500.2,258.5 507.5,271.1 514.8,262.7 522.2,220.7 529.5,182.9 536.8,262.7 544.1,258.5 551.5,203.9 558.8,224.9 566.1,195.5 573.4,271.1 580.8,241.7 588.1,271.1 595.4,266.9 602.7,266.9 610.1,245.9 617.4,182.9 624.7,271.1 632.0,271.1 639.4,271.1 646.7,271.1 654.0,271.1 661.3,254.3 668.7,237.5 676.0,220.7" fill="none" stroke="#26a69a" stroke-width="1.5" stroke-linejoin="round" stroke-linecap="round"/>
<circle cx="676.0" cy="220.7" r="3.5" fill="#26a69a"/>
<text x="24" y="294" font-family="'Helvetica Neue',Arial,sans-serif" font-size="9" fill="#787b86">last 90 days</text>
</svg>